<mxfile host="app.diagrams.net" modified="2024-03-02T22:38:15.805Z" agent="Mozilla/5.0 (Macintosh; Intel Mac OS X 10_15_7) AppleWebKit/537.36 (KHTML, like Gecko) Chrome/121.0.0.0 Safari/537.36" etag="KqZdvEN45d2sQtWvo5bY" version="24.0.1" type="device">
  <diagram name="Page-1" id="8X3TZysxgzyzw0phYstn">
    <mxGraphModel dx="1194" dy="516" grid="1" gridSize="10" guides="1" tooltips="1" connect="1" arrows="1" fold="1" page="1" pageScale="1" pageWidth="850" pageHeight="1100" math="0" shadow="0">
      <root>
        <mxCell id="0" />
        <mxCell id="1" parent="0" />
        <mxCell id="XnSRe5Cwc2JdNmbiMGRc-49" style="edgeStyle=orthogonalEdgeStyle;rounded=0;orthogonalLoop=1;jettySize=auto;html=1;" edge="1" parent="1" source="XnSRe5Cwc2JdNmbiMGRc-7">
          <mxGeometry relative="1" as="geometry">
            <mxPoint x="300" y="130" as="targetPoint" />
          </mxGeometry>
        </mxCell>
        <mxCell id="XnSRe5Cwc2JdNmbiMGRc-7" value="User inputs specifications" style="rounded=0;whiteSpace=wrap;html=1;fillColor=#3399FF;" vertex="1" parent="1">
          <mxGeometry x="50" y="100" width="120" height="60" as="geometry" />
        </mxCell>
        <mxCell id="XnSRe5Cwc2JdNmbiMGRc-21" style="edgeStyle=orthogonalEdgeStyle;rounded=0;orthogonalLoop=1;jettySize=auto;html=1;" edge="1" parent="1">
          <mxGeometry relative="1" as="geometry">
            <mxPoint x="605" y="210" as="targetPoint" />
            <mxPoint x="440" y="130" as="sourcePoint" />
            <Array as="points">
              <mxPoint x="606" y="130" />
            </Array>
          </mxGeometry>
        </mxCell>
        <mxCell id="XnSRe5Cwc2JdNmbiMGRc-8" value="Use AI 21from Bedrock to generate potential meals" style="rounded=0;whiteSpace=wrap;html=1;fillColor=#33FF99;" vertex="1" parent="1">
          <mxGeometry x="320" y="100" width="120" height="60" as="geometry" />
        </mxCell>
        <mxCell id="XnSRe5Cwc2JdNmbiMGRc-23" style="edgeStyle=orthogonalEdgeStyle;rounded=0;orthogonalLoop=1;jettySize=auto;html=1;exitX=0.5;exitY=1;exitDx=0;exitDy=0;" edge="1" parent="1" source="XnSRe5Cwc2JdNmbiMGRc-10">
          <mxGeometry relative="1" as="geometry">
            <mxPoint x="110" y="340" as="targetPoint" />
          </mxGeometry>
        </mxCell>
        <mxCell id="XnSRe5Cwc2JdNmbiMGRc-10" value="Potential meals displayed to user" style="rounded=0;whiteSpace=wrap;html=1;fillColor=#3399FF;" vertex="1" parent="1">
          <mxGeometry x="50" y="230" width="120" height="60" as="geometry" />
        </mxCell>
        <mxCell id="XnSRe5Cwc2JdNmbiMGRc-22" style="edgeStyle=orthogonalEdgeStyle;rounded=0;orthogonalLoop=1;jettySize=auto;html=1;exitX=0;exitY=0.5;exitDx=0;exitDy=0;" edge="1" parent="1" source="XnSRe5Cwc2JdNmbiMGRc-11">
          <mxGeometry relative="1" as="geometry">
            <mxPoint x="200" y="260" as="targetPoint" />
          </mxGeometry>
        </mxCell>
        <mxCell id="XnSRe5Cwc2JdNmbiMGRc-11" value="Gather meal data from Edamam databse" style="rounded=0;whiteSpace=wrap;html=1;fillColor=#FF9933;" vertex="1" parent="1">
          <mxGeometry x="540" y="230" width="120" height="60" as="geometry" />
        </mxCell>
        <mxCell id="XnSRe5Cwc2JdNmbiMGRc-24" style="edgeStyle=orthogonalEdgeStyle;rounded=0;orthogonalLoop=1;jettySize=auto;html=1;" edge="1" parent="1" source="XnSRe5Cwc2JdNmbiMGRc-14">
          <mxGeometry relative="1" as="geometry">
            <mxPoint x="310" y="380" as="targetPoint" />
          </mxGeometry>
        </mxCell>
        <mxCell id="XnSRe5Cwc2JdNmbiMGRc-14" value="User provides feeback" style="rounded=0;whiteSpace=wrap;html=1;fillColor=#3399FF;" vertex="1" parent="1">
          <mxGeometry x="50" y="350" width="120" height="60" as="geometry" />
        </mxCell>
        <mxCell id="XnSRe5Cwc2JdNmbiMGRc-25" style="edgeStyle=orthogonalEdgeStyle;rounded=0;orthogonalLoop=1;jettySize=auto;html=1;" edge="1" parent="1">
          <mxGeometry relative="1" as="geometry">
            <mxPoint x="610" y="310" as="targetPoint" />
            <mxPoint x="455" y="390" as="sourcePoint" />
          </mxGeometry>
        </mxCell>
        <mxCell id="XnSRe5Cwc2JdNmbiMGRc-50" style="edgeStyle=orthogonalEdgeStyle;rounded=0;orthogonalLoop=1;jettySize=auto;html=1;" edge="1" parent="1">
          <mxGeometry relative="1" as="geometry">
            <mxPoint x="110" y="420" as="targetPoint" />
            <mxPoint x="390" y="420" as="sourcePoint" />
            <Array as="points">
              <mxPoint x="390" y="480" />
              <mxPoint x="111" y="480" />
            </Array>
          </mxGeometry>
        </mxCell>
        <mxCell id="XnSRe5Cwc2JdNmbiMGRc-15" value="Chatbot discusses potential improvements with user" style="rounded=0;whiteSpace=wrap;html=1;fillColor=#33FF99;" vertex="1" parent="1">
          <mxGeometry x="320" y="360" width="120" height="60" as="geometry" />
        </mxCell>
        <mxCell id="XnSRe5Cwc2JdNmbiMGRc-45" value="&lt;h1&gt;&lt;font style=&quot;font-size: 18px;&quot;&gt;User Interface&lt;/font&gt;&lt;/h1&gt;" style="text;html=1;spacing=5;spacingTop=-20;whiteSpace=wrap;overflow=hidden;rounded=0;" vertex="1" parent="1">
          <mxGeometry x="45" y="20" width="130" height="40" as="geometry" />
        </mxCell>
        <mxCell id="XnSRe5Cwc2JdNmbiMGRc-46" value="&lt;font style=&quot;font-size: 18px;&quot;&gt;&lt;b&gt;Cloud&lt;/b&gt;&lt;/font&gt;" style="text;whiteSpace=wrap;html=1;" vertex="1" parent="1">
          <mxGeometry x="350" y="20" width="60" height="40" as="geometry" />
        </mxCell>
        <mxCell id="XnSRe5Cwc2JdNmbiMGRc-47" value="&lt;font style=&quot;font-size: 18px;&quot;&gt;&lt;b&gt;API Database&lt;/b&gt;&lt;/font&gt;" style="text;whiteSpace=wrap;html=1;" vertex="1" parent="1">
          <mxGeometry x="540" y="20" width="120" height="40" as="geometry" />
        </mxCell>
      </root>
    </mxGraphModel>
  </diagram>
</mxfile>
